<mxfile host="app.diagrams.net" modified="2023-04-12T06:54:05.559Z" agent="Mozilla/5.0 (Macintosh; Intel Mac OS X 10_15_7) AppleWebKit/537.36 (KHTML, like Gecko) Chrome/112.0.0.0 Safari/537.36" etag="U4OVJy-Yg96Ku1PdCbic" version="21.1.6" type="device">
  <diagram name="ページ1" id="z-FftpgeLL3ksxSVf0qm">
    <mxGraphModel dx="1194" dy="741" grid="1" gridSize="10" guides="1" tooltips="1" connect="1" arrows="1" fold="1" page="1" pageScale="1" pageWidth="827" pageHeight="1169" math="0" shadow="0">
      <root>
        <mxCell id="0" />
        <mxCell id="1" parent="0" />
        <mxCell id="Iq3-G8FM4mDo1oramrw6-20" value="" style="edgeStyle=orthogonalEdgeStyle;rounded=0;orthogonalLoop=1;jettySize=auto;html=1;" edge="1" parent="1" source="Iq3-G8FM4mDo1oramrw6-1" target="Iq3-G8FM4mDo1oramrw6-19">
          <mxGeometry relative="1" as="geometry" />
        </mxCell>
        <mxCell id="Iq3-G8FM4mDo1oramrw6-1" value="PC" style="rounded=0;whiteSpace=wrap;html=1;" vertex="1" parent="1">
          <mxGeometry x="120" y="210" width="50" height="40" as="geometry" />
        </mxCell>
        <mxCell id="Iq3-G8FM4mDo1oramrw6-2" value="add" style="rounded=0;whiteSpace=wrap;html=1;" vertex="1" parent="1">
          <mxGeometry x="70" y="90" width="60" height="30" as="geometry" />
        </mxCell>
        <mxCell id="Iq3-G8FM4mDo1oramrw6-3" style="edgeStyle=orthogonalEdgeStyle;rounded=0;orthogonalLoop=1;jettySize=auto;html=1;exitX=0.5;exitY=1;exitDx=0;exitDy=0;" edge="1" parent="1" source="Iq3-G8FM4mDo1oramrw6-2" target="Iq3-G8FM4mDo1oramrw6-2">
          <mxGeometry relative="1" as="geometry" />
        </mxCell>
        <mxCell id="Iq3-G8FM4mDo1oramrw6-4" value="" style="endArrow=classic;html=1;rounded=0;exitX=0.75;exitY=0;exitDx=0;exitDy=0;entryX=0;entryY=0.5;entryDx=0;entryDy=0;" edge="1" parent="1" source="Iq3-G8FM4mDo1oramrw6-1" target="Iq3-G8FM4mDo1oramrw6-2">
          <mxGeometry width="50" height="50" relative="1" as="geometry">
            <mxPoint x="390" y="380" as="sourcePoint" />
            <mxPoint x="440" y="330" as="targetPoint" />
            <Array as="points">
              <mxPoint x="160" y="30" />
              <mxPoint x="40" y="30" />
              <mxPoint x="40" y="100" />
            </Array>
          </mxGeometry>
        </mxCell>
        <mxCell id="Iq3-G8FM4mDo1oramrw6-7" value="in1" style="edgeLabel;html=1;align=center;verticalAlign=middle;resizable=0;points=[];" vertex="1" connectable="0" parent="Iq3-G8FM4mDo1oramrw6-4">
          <mxGeometry x="0.0338" y="-2" relative="1" as="geometry">
            <mxPoint as="offset" />
          </mxGeometry>
        </mxCell>
        <mxCell id="Iq3-G8FM4mDo1oramrw6-5" value="mux(for PCadder)&lt;br&gt;4 or ALU" style="rounded=0;whiteSpace=wrap;html=1;" vertex="1" parent="1">
          <mxGeometry x="170" y="90" width="120" height="60" as="geometry" />
        </mxCell>
        <mxCell id="Iq3-G8FM4mDo1oramrw6-6" value="" style="endArrow=classic;startArrow=classic;html=1;rounded=0;" edge="1" parent="1" target="Iq3-G8FM4mDo1oramrw6-2">
          <mxGeometry width="50" height="50" relative="1" as="geometry">
            <mxPoint x="170" y="100" as="sourcePoint" />
            <mxPoint x="440" y="320" as="targetPoint" />
          </mxGeometry>
        </mxCell>
        <mxCell id="Iq3-G8FM4mDo1oramrw6-8" value="in2" style="edgeLabel;html=1;align=center;verticalAlign=middle;resizable=0;points=[];" vertex="1" connectable="0" parent="Iq3-G8FM4mDo1oramrw6-6">
          <mxGeometry x="0.029" y="1" relative="1" as="geometry">
            <mxPoint as="offset" />
          </mxGeometry>
        </mxCell>
        <mxCell id="Iq3-G8FM4mDo1oramrw6-9" value="" style="endArrow=classic;html=1;rounded=0;entryX=0;entryY=0.75;entryDx=0;entryDy=0;exitX=0;exitY=1;exitDx=0;exitDy=0;" edge="1" parent="1" source="Iq3-G8FM4mDo1oramrw6-2" target="Iq3-G8FM4mDo1oramrw6-1">
          <mxGeometry width="50" height="50" relative="1" as="geometry">
            <mxPoint x="390" y="370" as="sourcePoint" />
            <mxPoint x="440" y="320" as="targetPoint" />
            <Array as="points">
              <mxPoint x="70" y="240" />
            </Array>
          </mxGeometry>
        </mxCell>
        <mxCell id="Iq3-G8FM4mDo1oramrw6-13" value="PC_address" style="edgeLabel;html=1;align=center;verticalAlign=middle;resizable=0;points=[];" vertex="1" connectable="0" parent="Iq3-G8FM4mDo1oramrw6-9">
          <mxGeometry x="-0.4931" y="-2" relative="1" as="geometry">
            <mxPoint as="offset" />
          </mxGeometry>
        </mxCell>
        <mxCell id="Iq3-G8FM4mDo1oramrw6-10" value="decoder" style="whiteSpace=wrap;html=1;" vertex="1" parent="1">
          <mxGeometry x="340" y="100" width="60" height="30" as="geometry" />
        </mxCell>
        <mxCell id="Iq3-G8FM4mDo1oramrw6-11" value="" style="endArrow=classic;html=1;rounded=0;" edge="1" parent="1">
          <mxGeometry width="50" height="50" relative="1" as="geometry">
            <mxPoint x="360" y="100" as="sourcePoint" />
            <mxPoint x="280" y="90" as="targetPoint" />
            <Array as="points">
              <mxPoint x="360" y="50" />
              <mxPoint x="280" y="50" />
            </Array>
          </mxGeometry>
        </mxCell>
        <mxCell id="Iq3-G8FM4mDo1oramrw6-12" value="load from ALU?" style="edgeLabel;html=1;align=center;verticalAlign=middle;resizable=0;points=[];" vertex="1" connectable="0" parent="Iq3-G8FM4mDo1oramrw6-11">
          <mxGeometry x="0.1172" y="-3" relative="1" as="geometry">
            <mxPoint x="5" y="3" as="offset" />
          </mxGeometry>
        </mxCell>
        <mxCell id="Iq3-G8FM4mDo1oramrw6-16" value="ALU" style="whiteSpace=wrap;html=1;" vertex="1" parent="1">
          <mxGeometry x="450" y="150" width="90" height="60" as="geometry" />
        </mxCell>
        <mxCell id="Iq3-G8FM4mDo1oramrw6-17" value="ALUOp" style="whiteSpace=wrap;html=1;" vertex="1" parent="1">
          <mxGeometry x="335" y="260" width="70" height="60" as="geometry" />
        </mxCell>
        <mxCell id="Iq3-G8FM4mDo1oramrw6-19" value="Inst mem" style="whiteSpace=wrap;html=1;aspect=fixed;" vertex="1" parent="1">
          <mxGeometry x="200" y="220" width="80" height="80" as="geometry" />
        </mxCell>
        <mxCell id="Iq3-G8FM4mDo1oramrw6-21" value="" style="endArrow=classic;html=1;rounded=0;exitX=0.5;exitY=1;exitDx=0;exitDy=0;" edge="1" parent="1" source="Iq3-G8FM4mDo1oramrw6-10" target="Iq3-G8FM4mDo1oramrw6-17">
          <mxGeometry width="50" height="50" relative="1" as="geometry">
            <mxPoint x="390" y="370" as="sourcePoint" />
            <mxPoint x="440" y="320" as="targetPoint" />
          </mxGeometry>
        </mxCell>
        <mxCell id="Iq3-G8FM4mDo1oramrw6-22" value="" style="endArrow=classic;html=1;rounded=0;exitX=1.057;exitY=0.375;exitDx=0;exitDy=0;exitPerimeter=0;entryX=0.5;entryY=1;entryDx=0;entryDy=0;" edge="1" parent="1" source="Iq3-G8FM4mDo1oramrw6-17" target="Iq3-G8FM4mDo1oramrw6-16">
          <mxGeometry width="50" height="50" relative="1" as="geometry">
            <mxPoint x="390" y="370" as="sourcePoint" />
            <mxPoint x="440" y="320" as="targetPoint" />
            <Array as="points">
              <mxPoint x="495" y="283" />
            </Array>
          </mxGeometry>
        </mxCell>
      </root>
    </mxGraphModel>
  </diagram>
</mxfile>
